<?xml version="1.0" encoding="UTF-8"?>
<!DOCTYPE svg PUBLIC "-//W3C//DTD SVG 1.1//EN" "http://www.w3.org/Graphics/SVG/1.1/DTD/svg11.dtd">
<svg xmlns="http://www.w3.org/2000/svg" version="1.1" width="2880px" height="1494px" style="shape-rendering:geometricPrecision; text-rendering:geometricPrecision; image-rendering:optimizeQuality; fill-rule:evenodd; clip-rule:evenodd" xmlns:xlink="http://www.w3.org/1999/xlink">
<g><path style="opacity:1" fill="#313442" d="M -0.5,-0.5 C 959.5,-0.5 1919.5,-0.5 2879.5,-0.5C 2879.5,0.5 2879.5,1.5 2879.5,2.5C 1919.5,2.5 959.5,2.5 -0.5,2.5C -0.5,1.5 -0.5,0.5 -0.5,-0.5 Z"/></g>
<g><path style="opacity:1" fill="#fefefe" d="M -0.5,2.5 C 959.5,2.5 1919.5,2.5 2879.5,2.5C 2879.5,499.5 2879.5,996.5 2879.5,1493.5C 2636.83,1493.5 2394.17,1493.5 2151.5,1493.5C 2144.41,1482.91 2135.41,1474.08 2124.5,1467C 2095.03,1453.44 2064.03,1447.44 2031.5,1449C 1833.5,1448.83 1635.5,1448.67 1437.5,1448.5C 1231.83,1448.35 1026.16,1448.85 820.5,1450C 793.52,1450.66 768.854,1458.33 746.5,1473C 738.892,1478.77 732.559,1485.6 727.5,1493.5C 484.833,1493.5 242.167,1493.5 -0.5,1493.5C -0.5,996.5 -0.5,499.5 -0.5,2.5 Z"/></g>
<g><path style="opacity:1" fill="#141414" d="M 1216.5,115.5 C 1215.75,118.053 1215.08,120.72 1214.5,123.5C 1197.72,127.877 1190.56,121.544 1193,104.5C 1197.57,96.2802 1204.07,93.9469 1212.5,97.5C 1213.74,96.7542 1215.07,96.4208 1216.5,96.5C 1216.5,99.8333 1216.5,103.167 1216.5,106.5C 1215.5,106.5 1214.5,106.5 1213.5,106.5C 1212.4,99.2192 1208.4,96.7192 1201.5,99C 1197.72,103.861 1196.55,109.361 1198,115.5C 1199.88,122.011 1204.05,124.178 1210.5,122C 1211.6,119.599 1211.77,117.099 1211,114.5C 1209.79,113.929 1208.63,113.262 1207.5,112.5C 1211.5,111.167 1215.5,111.167 1219.5,112.5C 1218.23,113.288 1217.23,114.288 1216.5,115.5 Z"/></g>
<g><path style="opacity:1" fill="#010101" d="M 1221.5,96.5 C 1225.55,96.1758 1229.55,96.5091 1233.5,97.5C 1232.37,98.2621 1231.21,98.9288 1230,99.5C 1229.33,106.833 1229.33,114.167 1230,121.5C 1231.21,122.071 1232.37,122.738 1233.5,123.5C 1229.5,124.833 1225.5,124.833 1221.5,123.5C 1222.63,122.738 1223.79,122.071 1225,121.5C 1225.67,114.167 1225.67,106.833 1225,99.5C 1223.27,99.0257 1222.1,98.0257 1221.5,96.5 Z"/></g>
<g><path style="opacity:1" fill="#080808" d="M 1235.5,96.5 C 1243.5,96.5 1251.5,96.5 1259.5,96.5C 1259.66,99.1873 1259.5,101.854 1259,104.5C 1257.21,100.199 1254.05,98.1994 1249.5,98.5C 1249.33,106.174 1249.5,113.841 1250,121.5C 1251.51,122.09 1253.01,122.756 1254.5,123.5C 1249.83,124.833 1245.17,124.833 1240.5,123.5C 1241.99,122.756 1243.49,122.09 1245,121.5C 1245.5,113.841 1245.67,106.174 1245.5,98.5C 1240.93,98.0558 1237.93,100.056 1236.5,104.5C 1235.52,101.914 1235.19,99.2469 1235.5,96.5 Z"/></g>
<g><path style="opacity:1" fill="#0f0f0f" d="M 1282.5,111.5 C 1278.37,110.515 1274.03,110.182 1269.5,110.5C 1269.19,114.371 1269.52,118.038 1270.5,121.5C 1271.4,122.158 1272.4,122.824 1273.5,123.5C 1269.5,124.833 1265.5,124.833 1261.5,123.5C 1262.63,122.738 1263.79,122.071 1265,121.5C 1265.67,114.167 1265.67,106.833 1265,99.5C 1263.79,98.9288 1262.63,98.2621 1261.5,97.5C 1265.5,96.1667 1269.5,96.1667 1273.5,97.5C 1272.37,98.2621 1271.21,98.9288 1270,99.5C 1269.5,102.482 1269.34,105.482 1269.5,108.5C 1273.83,108.5 1278.17,108.5 1282.5,108.5C 1282.66,105.482 1282.5,102.482 1282,99.5C 1281.08,98.9535 1280.24,98.2868 1279.5,97.5C 1283.17,96.1667 1286.83,96.1667 1290.5,97.5C 1289.68,98.3857 1288.68,98.719 1287.5,98.5C 1287.33,106.174 1287.5,113.841 1288,121.5C 1288.92,122.047 1289.76,122.713 1290.5,123.5C 1286.5,124.833 1282.5,124.833 1278.5,123.5C 1279.63,122.738 1280.79,122.071 1282,121.5C 1282.5,118.183 1282.67,114.85 1282.5,111.5 Z"/></g>
<g><path style="opacity:1" fill="#141414" d="M 1293.5,96.5 C 1297.55,96.1758 1301.55,96.5091 1305.5,97.5C 1304.37,98.2621 1303.21,98.9288 1302,99.5C 1301.33,105.5 1301.33,111.5 1302,117.5C 1305.88,123.789 1310.21,124.123 1315,118.5C 1315.67,112.167 1315.67,105.833 1315,99.5C 1313.79,98.9288 1312.63,98.2621 1311.5,97.5C 1315.17,96.1667 1318.83,96.1667 1322.5,97.5C 1321.37,98.2621 1320.21,98.9288 1319,99.5C 1318.67,105.833 1318.33,112.167 1318,118.5C 1317.22,120.286 1316.05,121.786 1314.5,123C 1308.39,125.61 1302.89,124.776 1298,120.5C 1297.67,113.5 1297.33,106.5 1297,99.5C 1295.27,99.0257 1294.1,98.0257 1293.5,96.5 Z"/></g>
<g><path style="opacity:1" fill="#0a0a0a" d="M 1325.5,96.5 C 1330.84,96.334 1336.18,96.5006 1341.5,97C 1345.29,99.0527 1346.46,102.219 1345,106.5C 1343.58,107.46 1342.08,108.293 1340.5,109C 1347.6,111.26 1349.26,115.593 1345.5,122C 1344.17,122.667 1342.83,123.333 1341.5,124C 1335.8,124.83 1330.14,124.663 1324.5,123.5C 1325.63,122.738 1326.79,122.071 1328,121.5C 1328.67,114.167 1328.67,106.833 1328,99.5C 1326.58,98.9221 1325.75,97.9221 1325.5,96.5 Z"/></g>
<g><path style="opacity:1" fill="#0f0f0f" d="M 1366.5,95.5 C 1369.67,95.4001 1372.67,96.0668 1375.5,97.5C 1376.17,97.1667 1376.83,96.8333 1377.5,96.5C 1378.83,99.5 1378.83,102.5 1377.5,105.5C 1376.2,103.063 1374.53,100.896 1372.5,99C 1365.46,97.5958 1363.79,99.9292 1367.5,106C 1371.79,107.424 1375.63,109.591 1379,112.5C 1380.72,117.731 1379.22,121.565 1374.5,124C 1370.08,124.182 1365.75,124.348 1361.5,124.5C 1360.17,121.167 1360.17,117.833 1361.5,114.5C 1362.92,116.336 1364.09,118.336 1365,120.5C 1367.58,122.347 1370.41,122.847 1373.5,122C 1376.17,119.333 1376.17,116.667 1373.5,114C 1369.13,112.733 1365.3,110.567 1362,107.5C 1360.47,102.239 1361.97,98.2389 1366.5,95.5 Z"/></g>
<g><path style="opacity:1" fill="#111111" d="M 1395.5,111.5 C 1394.08,110.549 1392.41,110.216 1390.5,110.5C 1390.19,114.042 1390.52,117.375 1391.5,120.5C 1391.61,121.117 1391.94,121.617 1392.5,122C 1395.17,122.667 1397.83,122.667 1400.5,122C 1402.53,120.104 1404.2,117.937 1405.5,115.5C 1406.17,117.833 1406.83,120.167 1407.5,122.5C 1407.83,122.333 1408.17,122.167 1408.5,122C 1412.68,113.451 1416.84,104.951 1421,96.5C 1425.03,104.568 1428.7,112.902 1432,121.5C 1434.33,122.833 1436.67,122.833 1439,121.5C 1439.67,114.167 1439.67,106.833 1439,99.5C 1437.79,98.9288 1436.63,98.2621 1435.5,97.5C 1442.22,96.1216 1448.89,96.2883 1455.5,98C 1459.01,103.729 1457.67,108.062 1451.5,111C 1454.32,116.315 1458.32,120.482 1463.5,123.5C 1460.5,124.833 1457.5,124.833 1454.5,123.5C 1452.06,119.589 1449.39,115.922 1446.5,112.5C 1445.79,111.596 1444.79,111.263 1443.5,111.5C 1443.19,115.042 1443.52,118.375 1444.5,121.5C 1445.4,122.158 1446.4,122.824 1447.5,123.5C 1439.5,124.833 1431.5,124.833 1423.5,123.5C 1424.32,122.614 1425.32,122.281 1426.5,122.5C 1426.24,120.063 1425.58,117.729 1424.5,115.5C 1421.23,114.513 1417.9,114.18 1414.5,114.5C 1413.91,117.127 1413.58,119.794 1413.5,122.5C 1414.98,122.238 1416.31,122.571 1417.5,123.5C 1405.83,124.833 1394.17,124.833 1382.5,123.5C 1383.63,122.738 1384.79,122.071 1386,121.5C 1386.67,114.167 1386.67,106.833 1386,99.5C 1384.79,98.9288 1383.63,98.2621 1382.5,97.5C 1389.8,96.5027 1397.14,96.1694 1404.5,96.5C 1405.12,104.339 1403.45,105.172 1399.5,99C 1396.52,98.502 1393.52,98.3354 1390.5,98.5C 1390.5,101.833 1390.5,105.167 1390.5,108.5C 1392.53,108.662 1394.53,108.495 1396.5,108C 1397.34,106.989 1397.67,105.822 1397.5,104.5C 1398.5,104.5 1399.5,104.5 1400.5,104.5C 1400.82,108.226 1400.49,111.893 1399.5,115.5C 1398.48,113.812 1397.15,112.479 1395.5,111.5 Z"/></g>
<g><path style="opacity:1" fill="#101010" d="M 1473.5,95.5 C 1477.05,95.1497 1480.39,95.8163 1483.5,97.5C 1484.17,97.1667 1484.83,96.8333 1485.5,96.5C 1486.83,99.8333 1486.83,103.167 1485.5,106.5C 1480.4,95.0518 1474.9,94.7184 1469,105.5C 1467.27,112.205 1469.1,117.705 1474.5,122C 1479.54,123.311 1483.21,121.644 1485.5,117C 1486.33,116.312 1487,116.479 1487.5,117.5C 1486.36,120.47 1484.36,122.636 1481.5,124C 1467.91,125.409 1462.08,119.242 1464,105.5C 1466.02,100.98 1469.19,97.6467 1473.5,95.5 Z"/></g>
<g><path style="opacity:1" fill="#070707" d="M 1509.5,121.5 C 1510.48,118.038 1510.81,114.371 1510.5,110.5C 1506.17,110.5 1501.83,110.5 1497.5,110.5C 1497.19,114.371 1497.52,118.038 1498.5,121.5C 1499.4,122.158 1500.4,122.824 1501.5,123.5C 1497.5,124.833 1493.5,124.833 1489.5,123.5C 1490.63,122.738 1491.79,122.071 1493,121.5C 1493.67,114.167 1493.67,106.833 1493,99.5C 1491.79,98.9288 1490.63,98.2621 1489.5,97.5C 1493.5,96.1667 1497.5,96.1667 1501.5,97.5C 1500.37,98.2621 1499.21,98.9288 1498,99.5C 1497.5,102.482 1497.34,105.482 1497.5,108.5C 1501.83,108.5 1506.17,108.5 1510.5,108.5C 1510.66,105.482 1510.5,102.482 1510,99.5C 1508.79,98.9288 1507.63,98.2621 1506.5,97.5C 1510.5,96.1667 1514.5,96.1667 1518.5,97.5C 1517.37,98.2621 1516.21,98.9288 1515,99.5C 1514.33,106.833 1514.33,114.167 1515,121.5C 1516.21,122.071 1517.37,122.738 1518.5,123.5C 1514.5,124.833 1510.5,124.833 1506.5,123.5C 1507.6,122.824 1508.6,122.158 1509.5,121.5 Z"/></g>
<g><path style="opacity:1" fill="#131313" d="M 1544.5,111.5 C 1543.08,110.549 1541.41,110.216 1539.5,110.5C 1539.19,114.042 1539.52,117.375 1540.5,120.5C 1540.61,121.117 1540.94,121.617 1541.5,122C 1544.17,122.667 1546.83,122.667 1549.5,122C 1551.53,120.104 1553.2,117.937 1554.5,115.5C 1555.48,118.428 1555.82,121.428 1555.5,124.5C 1547.47,124.831 1539.47,124.498 1531.5,123.5C 1532.63,122.738 1533.79,122.071 1535,121.5C 1535.67,114.167 1535.67,106.833 1535,99.5C 1533.79,98.9288 1532.63,98.2621 1531.5,97.5C 1538.8,96.5027 1546.14,96.1694 1553.5,96.5C 1554.12,104.339 1552.45,105.172 1548.5,99C 1545.52,98.502 1542.52,98.3354 1539.5,98.5C 1539.5,101.833 1539.5,105.167 1539.5,108.5C 1541.53,108.662 1543.53,108.495 1545.5,108C 1546.34,106.989 1546.67,105.822 1546.5,104.5C 1547.5,104.5 1548.5,104.5 1549.5,104.5C 1549.82,108.226 1549.49,111.893 1548.5,115.5C 1547.48,113.812 1546.15,112.479 1544.5,111.5 Z"/></g>
<g><path style="opacity:1" fill="#0d0d0d" d="M 1556.5,96.5 C 1559.52,96.3354 1562.52,96.502 1565.5,97C 1569.95,103.782 1574.78,110.282 1580,116.5C 1580.67,111.5 1580.67,106.5 1580,101.5C 1579.21,99.3964 1577.71,98.063 1575.5,97.5C 1579.17,96.1667 1582.83,96.1667 1586.5,97.5C 1585.37,98.2621 1584.21,98.9288 1583,99.5C 1582.5,107.827 1582.33,116.16 1582.5,124.5C 1581.18,124.67 1580.01,124.337 1579,123.5C 1574.38,116.55 1569.38,109.884 1564,103.5C 1563.33,108.833 1563.33,114.167 1564,119.5C 1564.79,121.604 1566.29,122.937 1568.5,123.5C 1564.83,124.833 1561.17,124.833 1557.5,123.5C 1558.76,122.618 1559.93,121.618 1561,120.5C 1561.67,113.833 1561.67,107.167 1561,100.5C 1559.14,99.4209 1557.64,98.0876 1556.5,96.5 Z"/></g>
<g><path style="opacity:1" fill="#141414" d="M 1598.5,95.5 C 1602.26,95.0708 1605.76,95.7375 1609,97.5C 1610.01,96.6634 1611.18,96.33 1612.5,96.5C 1612.82,99.8984 1612.49,103.232 1611.5,106.5C 1610.04,104.417 1608.71,102.25 1607.5,100C 1601.49,96.4012 1596.99,97.9012 1594,104.5C 1592.3,111.245 1593.8,117.078 1598.5,122C 1606.09,124.575 1608.92,122.075 1607,114.5C 1605.79,113.929 1604.63,113.262 1603.5,112.5C 1607.5,111.167 1611.5,111.167 1615.5,112.5C 1614.76,113.287 1613.92,113.953 1613,114.5C 1612.78,117.426 1612.28,120.26 1611.5,123C 1595.46,127.946 1587.96,122.112 1589,105.5C 1591.02,100.98 1594.19,97.6467 1598.5,95.5 Z"/></g>
<g><path style="opacity:1" fill="#151515" d="M 1617.5,96.5 C 1621.88,96.1744 1626.22,96.5078 1630.5,97.5C 1629.31,98.4287 1627.98,98.762 1626.5,98.5C 1626.33,106.174 1626.5,113.841 1627,121.5C 1628.21,122.071 1629.37,122.738 1630.5,123.5C 1626.17,124.833 1621.83,124.833 1617.5,123.5C 1618.63,122.738 1619.79,122.071 1621,121.5C 1621.67,114.167 1621.67,106.833 1621,99.5C 1619.27,99.0257 1618.1,98.0257 1617.5,96.5 Z"/></g>
<g><path style="opacity:1" fill="#0e0e0e" d="M 1640.5,104.5 C 1640.44,103.957 1640.11,103.624 1639.5,103.5C 1638.19,108.986 1638.19,114.32 1639.5,119.5C 1640.25,121.343 1641.58,122.676 1643.5,123.5C 1639.83,124.833 1636.17,124.833 1632.5,123.5C 1633.76,122.618 1634.93,121.618 1636,120.5C 1636.67,113.833 1636.67,107.167 1636,100.5C 1634.69,99.2283 1633.19,98.2283 1631.5,97.5C 1634.45,96.3452 1637.45,96.1786 1640.5,97C 1645.21,103.589 1650.04,110.089 1655,116.5C 1655.67,111.167 1655.67,105.833 1655,100.5C 1653.69,99.2283 1652.19,98.2283 1650.5,97.5C 1654.17,96.1667 1657.83,96.1667 1661.5,97.5C 1660.37,98.2621 1659.21,98.9288 1658,99.5C 1657.5,107.827 1657.33,116.16 1657.5,124.5C 1656.32,124.719 1655.32,124.386 1654.5,123.5C 1649.81,117.148 1645.14,110.815 1640.5,104.5 Z"/></g>
<g><path style="opacity:1" fill="#141414" d="M 1663.5,96.5 C 1670.83,96.5 1678.17,96.5 1685.5,96.5C 1685.81,98.924 1685.47,101.257 1684.5,103.5C 1681.8,98.9744 1677.8,97.3077 1672.5,98.5C 1672.5,101.833 1672.5,105.167 1672.5,108.5C 1676.22,109.227 1678.89,107.894 1680.5,104.5C 1681.83,108.167 1681.83,111.833 1680.5,115.5C 1679.1,111.8 1676.43,110.134 1672.5,110.5C 1672.21,114.437 1672.54,118.27 1673.5,122C 1676.17,122.667 1678.83,122.667 1681.5,122C 1683.52,120.143 1685.19,117.976 1686.5,115.5C 1687.48,118.428 1687.82,121.428 1687.5,124.5C 1679.47,124.831 1671.47,124.498 1663.5,123.5C 1664.63,122.738 1665.79,122.071 1667,121.5C 1667.67,114.167 1667.67,106.833 1667,99.5C 1665.27,99.0257 1664.1,98.0257 1663.5,96.5 Z"/></g>
<g><path style="opacity:1" fill="#eaeaea" d="M 1332.5,98.5 C 1340.49,97.998 1342.49,101.165 1338.5,108C 1336.53,108.495 1334.53,108.662 1332.5,108.5C 1332.5,105.167 1332.5,101.833 1332.5,98.5 Z"/></g>
<g><path style="opacity:1" fill="#e7e7e7" d="M 1443.5,98.5 C 1448.51,97.3289 1451.51,99.1623 1452.5,104C 1451.46,108.848 1448.46,110.682 1443.5,109.5C 1443.5,105.833 1443.5,102.167 1443.5,98.5 Z"/></g>
<g><path style="opacity:1" fill="#6e6e6e" d="M 1640.5,104.5 C 1639.51,109.305 1639.18,114.305 1639.5,119.5C 1638.19,114.32 1638.19,108.986 1639.5,103.5C 1640.11,103.624 1640.44,103.957 1640.5,104.5 Z"/></g>
<g><path style="opacity:1" fill="#ebebeb" d="M 1419.5,103.5 C 1420.93,106.197 1422.26,109.031 1423.5,112C 1421.19,112.497 1418.86,112.663 1416.5,112.5C 1416.9,109.285 1417.9,106.285 1419.5,103.5 Z"/></g>
<g><path style="opacity:1" fill="#838383" d="M 1282.5,111.5 C 1278.5,111.5 1274.5,111.5 1270.5,111.5C 1270.5,114.833 1270.5,118.167 1270.5,121.5C 1269.52,118.038 1269.19,114.371 1269.5,110.5C 1274.03,110.182 1278.37,110.515 1282.5,111.5 Z"/></g>
<g><path style="opacity:1" fill="#e6e6e6" d="M 1332.5,110.5 C 1342.33,110.129 1344.67,113.962 1339.5,122C 1336.97,122.896 1334.81,122.396 1333,120.5C 1332.5,117.183 1332.33,113.85 1332.5,110.5 Z"/></g>
<g><path style="opacity:1" fill="#808080" d="M 1395.5,111.5 C 1394.17,111.5 1392.83,111.5 1391.5,111.5C 1391.5,114.5 1391.5,117.5 1391.5,120.5C 1390.52,117.375 1390.19,114.042 1390.5,110.5C 1392.41,110.216 1394.08,110.549 1395.5,111.5 Z"/></g>
<g><path style="opacity:1" fill="#b6b6b6" d="M 1509.5,121.5 C 1509.5,118.167 1509.5,114.833 1509.5,111.5C 1505.83,111.5 1502.17,111.5 1498.5,111.5C 1498.5,114.833 1498.5,118.167 1498.5,121.5C 1497.52,118.038 1497.19,114.371 1497.5,110.5C 1501.83,110.5 1506.17,110.5 1510.5,110.5C 1510.81,114.371 1510.48,118.038 1509.5,121.5 Z"/></g>
<g><path style="opacity:1" fill="#808080" d="M 1544.5,111.5 C 1543.17,111.5 1541.83,111.5 1540.5,111.5C 1540.5,114.5 1540.5,117.5 1540.5,120.5C 1539.52,117.375 1539.19,114.042 1539.5,110.5C 1541.41,110.216 1543.08,110.549 1544.5,111.5 Z"/></g>
<g><path style="opacity:1" fill="#7e7e7e" d="M 1446.5,112.5 C 1444.61,114.988 1443.95,117.988 1444.5,121.5C 1443.52,118.375 1443.19,115.042 1443.5,111.5C 1444.79,111.263 1445.79,111.596 1446.5,112.5 Z"/></g>
<g><path style="opacity:1" fill="#747474" d="M 1216.5,115.5 C 1217.04,118.698 1216.37,121.365 1214.5,123.5C 1215.08,120.72 1215.75,118.053 1216.5,115.5 Z"/></g>
<g><path style="opacity:1" fill="#212936" d="M 167.5,218.5 C 1015.5,218.333 1863.5,218.5 2711.5,219C 2714.67,220.833 2717.17,223.333 2719,226.5C 2719.67,253.167 2719.67,279.833 2719,306.5C 2717.17,309.667 2714.67,312.167 2711.5,314C 1863.5,314.667 1015.5,314.667 167.5,314C 164.333,312.167 161.833,309.667 160,306.5C 159.333,279.833 159.333,253.167 160,226.5C 162.028,223.308 164.528,220.641 167.5,218.5 Z"/></g>
<g><path style="opacity:1" fill="#fefefe" d="M 167.5,220.5 C 1015.17,220.333 1862.83,220.5 2710.5,221C 2713.58,221.786 2715.75,223.619 2717,226.5C 2717.67,252.833 2717.67,279.167 2717,305.5C 2716.17,309 2714,311.167 2710.5,312C 1862.83,312.667 1015.17,312.667 167.5,312C 164.619,310.749 162.786,308.583 162,305.5C 161.333,279.167 161.333,252.833 162,226.5C 163.36,223.977 165.193,221.977 167.5,220.5 Z"/></g>
<g><path style="opacity:1" fill="#171d2b" d="M 182.5,256.5 C 183.978,256.238 185.311,256.571 186.5,257.5C 181.572,259.915 181.572,261.915 186.5,263.5C 185.311,264.429 183.978,264.762 182.5,264.5C 181.833,281.833 181.167,281.833 180.5,264.5C 176.5,263.833 176.5,263.167 180.5,262.5C 180.253,260.142 180.919,258.142 182.5,256.5 Z"/></g>
<g><path style="opacity:1" fill="#1d2230" d="M 271.5,256.5 C 272.5,256.5 273.5,256.5 274.5,256.5C 274.5,263.5 274.5,270.5 274.5,277.5C 271.242,276.932 267.909,276.766 264.5,277C 260.5,272.333 260.5,267.667 264.5,263C 266.568,262.313 268.568,262.48 270.5,263.5C 271.474,261.257 271.808,258.924 271.5,256.5 Z"/></g>
<g><path style="opacity:1" fill="#202533" d="M 188.5,263.5 C 189.251,262.427 190.251,262.26 191.5,263C 192.376,264.586 193.376,266.086 194.5,267.5C 195.5,266.167 196.5,264.833 197.5,263.5C 198.5,262.167 199.5,262.167 200.5,263.5C 199.035,265.599 197.701,267.766 196.5,270C 197.701,272.234 199.035,274.401 200.5,276.5C 200,276.833 199.5,277.167 199,277.5C 197.338,276.003 195.838,274.337 194.5,272.5C 193.5,273.833 192.5,275.167 191.5,276.5C 190.5,277.833 189.5,277.833 188.5,276.5C 190.444,274.72 191.777,272.553 192.5,270C 191.715,267.406 190.382,265.239 188.5,263.5 Z"/></g>
<g><path style="opacity:1" fill="#212734" d="M 203.5,262.5 C 206.114,262.932 208.78,263.265 211.5,263.5C 209.807,264.228 208.307,265.228 207,266.5C 206.501,270.152 206.335,273.818 206.5,277.5C 205.5,277.5 204.5,277.5 203.5,277.5C 203.5,272.5 203.5,267.5 203.5,262.5 Z"/></g>
<g><path style="opacity:1" fill="#181e2b" d="M 214.5,262.5 C 217.684,262.833 221.018,263 224.5,263C 225,263.5 225.5,264 226,264.5C 226.828,268.871 226.661,273.205 225.5,277.5C 224.675,273.878 224.175,270.211 224,266.5C 221.16,263.629 218.826,263.963 217,267.5C 216.824,270.882 216.324,274.215 215.5,277.5C 214.506,272.544 214.173,267.544 214.5,262.5 Z"/></g>
<g><path style="opacity:1" fill="#1c212f" d="M 232.5,262.5 C 235.685,262.02 238.519,262.686 241,264.5C 241.828,268.871 241.661,273.205 240.5,277.5C 239.808,276.975 239.308,276.308 239,275.5C 236.582,277.68 233.916,278.013 231,276.5C 229.504,274.55 229.337,272.55 230.5,270.5C 233.286,269.044 236.286,268.044 239.5,267.5C 237.271,263.945 234.604,263.612 231.5,266.5C 231.167,266.167 230.833,265.833 230.5,265.5C 231.193,264.482 231.859,263.482 232.5,262.5 Z"/></g>
<g><path style="opacity:1" fill="#1d2230" d="M 245.5,262.5 C 248.684,262.833 252.018,263 255.5,263C 256,263.5 256.5,264 257,264.5C 257.828,268.871 257.661,273.205 256.5,277.5C 255.675,273.878 255.175,270.211 255,266.5C 253,263.833 251,263.833 249,266.5C 248.501,270.152 248.335,273.818 248.5,277.5C 247.5,277.5 246.5,277.5 245.5,277.5C 245.5,272.5 245.5,267.5 245.5,262.5 Z"/></g>
<g><path style="opacity:1" fill="#1e2431" d="M 280.5,262.5 C 284.325,261.789 287.325,262.955 289.5,266C 287.323,266.345 285.323,265.845 283.5,264.5C 282,264.453 281,265.119 280.5,266.5C 283.228,268.253 286.061,269.92 289,271.5C 289.677,273.982 288.844,275.815 286.5,277C 282.688,278.207 279.688,277.207 277.5,274C 279.677,273.655 281.677,274.155 283.5,275.5C 285,275.547 286,274.881 286.5,273.5C 284.318,271.706 281.818,270.373 279,269.5C 278.167,266.829 278.667,264.496 280.5,262.5 Z"/></g>
<g><path style="opacity:1" fill="#e8e9ea" d="M 265.5,264.5 C 271.156,264.867 272.989,267.867 271,273.5C 268.16,276.371 265.826,276.037 264,272.5C 263.109,269.502 263.609,266.836 265.5,264.5 Z"/></g>
<g><path style="opacity:1" fill="#dadbdd" d="M 233.5,270.5 C 240.787,270.099 241.453,271.765 235.5,275.5C 232.49,274.806 231.823,273.139 233.5,270.5 Z"/></g>
<g><path style="opacity:1" fill="#6466e9" d="M 166.5,330.5 C 1014.83,330.333 1863.17,330.5 2711.5,331C 2719.56,332.732 2724.73,337.565 2727,345.5C 2727.67,373.833 2727.67,402.167 2727,430.5C 2725.17,439 2720,444.167 2711.5,446C 1863.17,446.667 1014.83,446.667 166.5,446C 158.565,443.732 153.732,438.565 152,430.5C 151.333,402.167 151.333,373.833 152,345.5C 154.351,337.984 159.184,332.984 166.5,330.5 Z"/></g>
<g><path style="opacity:1" fill="#fefefe" d="M 166.5,334.5 C 1015.17,334.333 1863.83,334.5 2712.5,335C 2717.33,337.167 2720.83,340.667 2723,345.5C 2723.67,374.167 2723.67,402.833 2723,431.5C 2720.83,436.333 2717.33,439.833 2712.5,442C 1863.83,442.667 1015.17,442.667 166.5,442C 161.667,439.833 158.167,436.333 156,431.5C 155.333,402.833 155.333,374.167 156,345.5C 158.357,340.645 161.857,336.979 166.5,334.5 Z"/></g>
<g><path style="opacity:1" fill="#4e46dc" d="M 167.5,338.5 C 1015.5,338.333 1863.5,338.5 2711.5,339C 2714.67,340.833 2717.17,343.333 2719,346.5C 2719.67,374.5 2719.67,402.5 2719,430.5C 2717.17,433.667 2714.67,436.167 2711.5,438C 1863.5,438.667 1015.5,438.667 167.5,438C 164.333,436.167 161.833,433.667 160,430.5C 159.333,402.5 159.333,374.5 160,346.5C 162.028,343.308 164.528,340.641 167.5,338.5 Z"/></g>
<g><path style="opacity:1" fill="#f3f1fc" d="M 1383.5,376.5 C 1389.65,376.05 1393.31,378.717 1394.5,384.5C 1391.52,383.339 1388.52,382.005 1385.5,380.5C 1381.48,381.355 1380.81,383.188 1383.5,386C 1387.4,386.676 1390.9,388.176 1394,390.5C 1395.05,399.111 1391.22,402.611 1382.5,401C 1378.99,399.67 1377.33,397.17 1377.5,393.5C 1380.43,394.589 1383.26,395.923 1386,397.5C 1389.74,397.116 1390.91,395.282 1389.5,392C 1384.85,391.725 1381.02,389.892 1378,386.5C 1376.98,381.528 1378.82,378.194 1383.5,376.5 Z"/></g>
<g><path style="opacity:1" fill="#f3f2fc" d="M 1398.5,377.5 C 1403.5,377.5 1408.5,377.5 1413.5,377.5C 1413.5,378.833 1413.5,380.167 1413.5,381.5C 1409.83,381.5 1406.17,381.5 1402.5,381.5C 1402.5,383.167 1402.5,384.833 1402.5,386.5C 1405.83,386.5 1409.17,386.5 1412.5,386.5C 1412.5,387.833 1412.5,389.167 1412.5,390.5C 1409.17,390.5 1405.83,390.5 1402.5,390.5C 1402.5,392.5 1402.5,394.5 1402.5,396.5C 1406.17,396.5 1409.83,396.5 1413.5,396.5C 1413.5,397.833 1413.5,399.167 1413.5,400.5C 1408.5,400.5 1403.5,400.5 1398.5,400.5C 1398.5,392.833 1398.5,385.167 1398.5,377.5 Z"/></g>
<g><path style="opacity:1" fill="#f8f7fd" d="M 1423.5,377.5 C 1425.17,377.5 1426.83,377.5 1428.5,377.5C 1431.03,385.096 1433.36,392.762 1435.5,400.5C 1434.02,400.762 1432.69,400.429 1431.5,399.5C 1431.3,395.629 1429.3,393.963 1425.5,394.5C 1424.17,394.833 1422.83,395.167 1421.5,395.5C 1421.29,399.38 1419.29,401.047 1415.5,400.5C 1417.77,392.69 1420.44,385.023 1423.5,377.5 Z"/></g>
<g><path style="opacity:1" fill="#f8f7fd" d="M 1438.5,377.5 C 1442.85,377.334 1447.18,377.501 1451.5,378C 1456.78,382.508 1456.78,387.008 1451.5,391.5C 1453.29,394.251 1454.96,397.084 1456.5,400C 1454.83,400.667 1453.17,400.667 1451.5,400C 1450.17,397.667 1448.83,395.333 1447.5,393C 1445.87,392.506 1444.2,392.34 1442.5,392.5C 1442.5,395.167 1442.5,397.833 1442.5,400.5C 1441.17,400.5 1439.83,400.5 1438.5,400.5C 1438.5,392.833 1438.5,385.167 1438.5,377.5 Z"/></g>
<g><path style="opacity:1" fill="#f3f2fc" d="M 1465.5,376.5 C 1469.72,375.979 1473.39,377.146 1476.5,380C 1477.86,381.584 1478.53,383.418 1478.5,385.5C 1477.13,385.657 1475.79,385.49 1474.5,385C 1470.4,378.852 1466.57,379.019 1463,385.5C 1461.77,390.817 1463.43,394.817 1468,397.5C 1470.6,397.082 1472.77,395.916 1474.5,394C 1479.2,393.879 1479.53,395.546 1475.5,399C 1464.95,403.638 1459.28,400.138 1458.5,388.5C 1458.35,382.999 1460.68,378.999 1465.5,376.5 Z"/></g>
<g><path style="opacity:1" fill="#efedfb" d="M 1481.5,377.5 C 1482.83,377.5 1484.17,377.5 1485.5,377.5C 1485.5,380.5 1485.5,383.5 1485.5,386.5C 1489.17,386.5 1492.83,386.5 1496.5,386.5C 1496.5,383.5 1496.5,380.5 1496.5,377.5C 1498.17,377.5 1499.83,377.5 1501.5,377.5C 1501.5,385.167 1501.5,392.833 1501.5,400.5C 1499.83,400.5 1498.17,400.5 1496.5,400.5C 1496.5,397.167 1496.5,393.833 1496.5,390.5C 1492.83,390.5 1489.17,390.5 1485.5,390.5C 1485.5,393.833 1485.5,397.167 1485.5,400.5C 1484.17,400.5 1482.83,400.5 1481.5,400.5C 1481.5,392.833 1481.5,385.167 1481.5,377.5 Z"/></g>
<g><path style="opacity:1" fill="#544bdd" d="M 1442.5,381.5 C 1444.86,381.337 1447.19,381.503 1449.5,382C 1452.17,384 1452.17,386 1449.5,388C 1447.19,388.497 1444.86,388.663 1442.5,388.5C 1442.5,386.167 1442.5,383.833 1442.5,381.5 Z"/></g>
<g><path style="opacity:1" fill="#5a50de" d="M 1427.5,389.5 C 1426.17,390.833 1424.83,390.833 1423.5,389.5C 1425.26,381.712 1426.6,381.712 1427.5,389.5 Z"/></g>
<g><path style="opacity:1" fill="#a09bec" d="M 1423.5,389.5 C 1424.83,390.833 1426.17,390.833 1427.5,389.5C 1428.04,389.56 1428.38,389.893 1428.5,390.5C 1426.5,391.833 1424.5,391.833 1422.5,390.5C 1422.62,389.893 1422.96,389.56 1423.5,389.5 Z"/></g>
<g><path style="opacity:1" fill="#f5f5f5" d="M 160.5,572.5 C 162.671,574.5 165.004,576.334 167.5,578C 591.333,578.167 1015.17,578.333 1439,578.5C 1862.83,578.333 2286.67,578.167 2710.5,578C 2713.58,576.757 2716.24,574.923 2718.5,572.5C 2717.75,576.417 2715.42,578.917 2711.5,580C 2287.5,580.167 1863.5,580.333 1439.5,580.5C 1015.5,580.333 591.5,580.167 167.5,580C 163.582,578.917 161.248,576.417 160.5,572.5 Z"/></g>
<g><path style="opacity:1" fill="#d2d5da" d="M 2718.5,572.5 C 2716.24,574.923 2713.58,576.757 2710.5,578C 2286.67,578.167 1862.83,578.333 1439,578.5C 1015.17,578.333 591.333,578.167 167.5,578C 165.004,576.334 162.671,574.5 160.5,572.5C 159.364,549.197 159.197,525.864 160,502.5C 161.263,498.781 163.763,496.281 167.5,495C 591.5,494.833 1015.5,494.667 1439.5,494.5C 1863.5,494.667 2287.5,494.833 2711.5,495C 2715,496.5 2717.5,499 2719,502.5C 2719.8,525.864 2719.64,549.197 2718.5,572.5 Z"/></g>
<g><path style="opacity:1" fill="#fefefe" d="M 167.5,496.5 C 1014.83,496.333 1862.17,496.5 2709.5,497C 2713.02,497.504 2715.52,499.337 2717,502.5C 2717.67,524.5 2717.67,546.5 2717,568.5C 2716.5,573 2714,575.5 2709.5,576C 1862.17,576.667 1014.83,576.667 167.5,576C 164.337,574.52 162.504,572.02 162,568.5C 161.333,546.5 161.333,524.5 162,502.5C 164.04,500.63 165.873,498.63 167.5,496.5 Z"/></g>
<g><path style="opacity:1" fill="#464d5b" d="M 2658.5,540.5 C 2666.34,540.036 2674.01,540.536 2681.5,542C 2677.51,543.138 2673.34,543.638 2669,543.5C 2665.17,543.167 2661.33,542.833 2657.5,542.5C 2657.86,541.817 2658.2,541.15 2658.5,540.5 Z"/></g>
<g><path style="opacity:1" fill="#424a58" d="M 312.5,531.5 C 315.187,531.336 317.854,531.503 320.5,532C 321.833,532.667 322.833,533.667 323.5,535C 321.062,535.682 318.895,535.182 317,533.5C 313.268,534.182 312.768,535.682 315.5,538C 317.878,538.511 320.212,539.178 322.5,540C 324.09,543.231 323.423,545.897 320.5,548C 316.409,549.227 312.909,548.394 310,545.5C 309.568,544.4 310.068,543.733 311.5,543.5C 313.902,545.049 316.568,545.716 319.5,545.5C 319.67,544.178 319.337,543.011 318.5,542C 310.935,541.408 308.935,537.908 312.5,531.5 Z"/></g>
<g><path style="opacity:1" fill="#434b59" d="M 272.5,531.5 C 276.356,531.855 280.356,532.022 284.5,532C 285.333,532.833 286.167,533.667 287,534.5C 287.499,539.155 287.666,543.821 287.5,548.5C 286.167,548.5 284.833,548.5 283.5,548.5C 283.666,544.154 283.499,539.821 283,535.5C 279.914,533.78 277.581,534.447 276,537.5C 275.501,541.152 275.335,544.818 275.5,548.5C 274.5,548.5 273.5,548.5 272.5,548.5C 272.5,542.833 272.5,537.167 272.5,531.5 Z"/></g>
<g><path style="opacity:1" fill="#414857" d="M 257.5,531.5 C 260.187,531.336 262.854,531.503 265.5,532C 266.428,532.388 267.095,533.055 267.5,534C 268.419,538.781 268.752,543.615 268.5,548.5C 265.47,547.471 262.47,547.471 259.5,548.5C 254.849,547.807 253.349,545.141 255,540.5C 257.826,538.66 260.993,537.994 264.5,538.5C 264.5,537.167 264.5,535.833 264.5,534.5C 261.134,534.788 257.8,534.954 254.5,535C 255.365,533.641 256.365,532.474 257.5,531.5 Z"/></g>
<g><path style="opacity:1" fill="#ebeced" d="M 259.5,540.5 C 261.167,540.5 262.833,540.5 264.5,540.5C 263.745,545.596 261.411,546.596 257.5,543.5C 258.193,542.482 258.859,541.482 259.5,540.5 Z"/></g>
<g><path style="opacity:1" fill="#434b59" d="M 236.5,531.5 C 240.356,531.855 244.356,532.022 248.5,532C 249.333,532.833 250.167,533.667 251,534.5C 251.499,539.155 251.666,543.821 251.5,548.5C 250.167,548.5 248.833,548.5 247.5,548.5C 247.666,544.154 247.499,539.821 247,535.5C 243.914,533.78 241.581,534.447 240,537.5C 239.501,541.152 239.335,544.818 239.5,548.5C 238.5,548.5 237.5,548.5 236.5,548.5C 236.5,542.833 236.5,537.167 236.5,531.5 Z"/></g>
<g><path style="opacity:1" fill="#444b59" d="M 223.5,531.5 C 225.451,531.227 226.951,531.893 228,533.5C 229.401,531.808 231.234,531.141 233.5,531.5C 233.5,532.5 233.5,533.5 233.5,534.5C 231.278,534.178 229.444,534.845 228,536.5C 227.501,540.486 227.334,544.486 227.5,548.5C 226.167,548.5 224.833,548.5 223.5,548.5C 223.5,542.833 223.5,537.167 223.5,531.5 Z"/></g>
<g><path style="opacity:1" fill="#444b59" d="M 206.5,531.5 C 207.873,531.343 209.207,531.51 210.5,532C 211.376,533.586 212.376,535.086 213.5,536.5C 214.5,535.167 215.5,533.833 216.5,532.5C 217.833,531.167 219.167,531.167 220.5,532.5C 215.133,537.919 215.466,543.085 221.5,548C 219.741,548.798 218.074,548.631 216.5,547.5C 214.5,542.167 212.5,542.167 210.5,547.5C 208.926,548.631 207.259,548.798 205.5,548C 207.5,545.333 209.5,542.667 211.5,540C 209.432,537.358 207.765,534.525 206.5,531.5 Z"/></g>
<g><path style="opacity:1" fill="#464d5b" d="M 2658.5,529.5 C 2666.2,529.169 2673.86,529.503 2681.5,530.5C 2681.29,531.086 2680.96,531.586 2680.5,532C 2673.17,532.667 2665.83,532.667 2658.5,532C 2657.4,531.23 2657.4,530.397 2658.5,529.5 Z"/></g>
<g><path style="opacity:1" fill="#434a59" d="M 302.5,524.5 C 303.833,524.5 305.167,524.5 306.5,524.5C 306.5,532.5 306.5,540.5 306.5,548.5C 304.549,548.773 303.049,548.107 302,546.5C 299.503,548.478 296.669,548.978 293.5,548C 292.299,547.097 291.465,545.931 291,544.5C 290.333,541.167 290.333,537.833 291,534.5C 294.39,530.968 298.057,530.634 302,533.5C 302.498,530.518 302.665,527.518 302.5,524.5 Z"/></g>
<g><path style="opacity:1" fill="#edeeef" d="M 295.5,534.5 C 301.499,534.002 303.666,536.669 302,542.5C 299.295,546.347 296.629,546.347 294,542.5C 293.109,539.502 293.609,536.836 295.5,534.5 Z"/></g>
<g><path style="opacity:1" fill="#464d5b" d="M 198.5,524.5 C 200.5,524.5 202.5,524.5 204.5,524.5C 204.5,525.5 204.5,526.5 204.5,527.5C 203.167,527.5 201.833,527.5 200.5,527.5C 200.5,528.833 200.5,530.167 200.5,531.5C 201.833,531.5 203.167,531.5 204.5,531.5C 204.5,532.5 204.5,533.5 204.5,534.5C 203.167,534.5 201.833,534.5 200.5,534.5C 200.5,539.167 200.5,543.833 200.5,548.5C 199.167,548.5 197.833,548.5 196.5,548.5C 197.046,542.933 196.379,537.6 194.5,532.5C 195.953,529.844 197.286,527.177 198.5,524.5 Z"/></g>
<g><path style="opacity:1" fill="#f6f6f6" d="M 2151.5,1493.5 C 2142.83,1493.5 2134.17,1493.5 2125.5,1493.5C 2116.15,1484.48 2105.15,1477.98 2092.5,1474C 2076.46,1469.63 2060.13,1467.3 2043.5,1467C 1640.83,1466.33 1238.17,1466.33 835.5,1467C 810.324,1466.58 786.658,1472.25 764.5,1484C 760.641,1487.03 756.974,1490.2 753.5,1493.5C 744.833,1493.5 736.167,1493.5 727.5,1493.5C 732.559,1485.6 738.892,1478.77 746.5,1473C 768.854,1458.33 793.52,1450.66 820.5,1450C 1026.16,1448.85 1231.83,1448.35 1437.5,1448.5C 1635.5,1448.67 1833.5,1448.83 2031.5,1449C 2064.03,1447.44 2095.03,1453.44 2124.5,1467C 2135.41,1474.08 2144.41,1482.91 2151.5,1493.5 Z"/></g>
<g><path style="opacity:1" fill="#f0f0f0" d="M 2125.5,1493.5 C 2117.17,1493.5 2108.83,1493.5 2100.5,1493.5C 2093.13,1489.09 2085.13,1485.92 2076.5,1484C 2061,1480.85 2045.33,1479.18 2029.5,1479C 1636.83,1478.33 1244.17,1478.33 851.5,1479C 830.016,1478.81 809.016,1481.81 788.5,1488C 784.741,1489.88 781.075,1491.71 777.5,1493.5C 769.5,1493.5 761.5,1493.5 753.5,1493.5C 756.974,1490.2 760.641,1487.03 764.5,1484C 786.658,1472.25 810.324,1466.58 835.5,1467C 1238.17,1466.33 1640.83,1466.33 2043.5,1467C 2060.13,1467.3 2076.46,1469.63 2092.5,1474C 2105.15,1477.98 2116.15,1484.48 2125.5,1493.5 Z"/></g>
<g><path style="opacity:1" fill="#e9e9e9" d="M 2100.5,1493.5 C 1659.5,1493.5 1218.5,1493.5 777.5,1493.5C 781.075,1491.71 784.741,1489.88 788.5,1488C 809.016,1481.81 830.016,1478.81 851.5,1479C 1244.17,1478.33 1636.83,1478.33 2029.5,1479C 2045.33,1479.18 2061,1480.85 2076.5,1484C 2085.13,1485.92 2093.13,1489.09 2100.5,1493.5 Z"/></g>
</svg>
